<svg xmlns="http://www.w3.org/2000/svg" width="150" height="50" stroke="null"><path d="M53.377 26.37H50.9l.206.206c.413.413.413.826.62 1.445v16.717c0 .62-.206 1.238-.62 1.445l-.206.206h3.715c-.413-.206-.62-.62-.62-1.032v-8.05h5.16c.62 0 1.032.206 1.032.62v-2.064s0 .206-.206.206c-.206.413-.62.413-1.032.413h-5.16v-9.08h6.2c.206 0 .62.206.62.413l.206.206v-1.445l-7.43-.206zm12.6 2.477c2.064-1.857 4.747-2.9 7.43-2.9a12.96 12.96 0 0 1 3.921.619l1.238.62c.413.206.826.413 1.238.826.413.206.826.62 1.032.826 2.27 2.064 3.302 4.334 3.302 7.223s-1.032 5.366-3.302 7.43c-2.064 2.064-4.54 2.9-7.43 2.9-1.445 0-2.683-.206-3.92-.62s-2.27-1.238-3.5-2.064c-1.238-1.032-2.064-2.27-2.683-3.715-.62-1.238-.826-2.477-.826-3.92.206-2.9 1.445-5.366 3.5-7.223zm-.826 7.223c0 2.683.826 4.953 2.064 6.8 1.65 2.064 3.715 2.9 6.398 2.9 1.238 0 2.27-.206 3.096-.62.62-.206 1.238-.62 1.65-1.032a4.82 4.82 0 0 0 1.445-1.445c1.445-1.857 2.27-4.128 2.27-6.8 0-1.032-.206-1.857-.413-2.9-.413-1.857-1.445-3.5-2.9-4.747-.62-.62-1.445-1.032-2.27-1.238s-1.857-.413-2.9-.413h-.206c-1.445 0-2.683.206-3.5.826-1.032.62-2.064 1.238-2.683 2.27-1.445 1.857-2.064 3.92-2.064 6.398zm24.353-7.223c2.064-1.857 4.747-2.9 7.43-2.9a12.96 12.96 0 0 1 3.921.619l1.238.62c.413.206.826.413 1.238.826.413.206.826.62 1.032.826 2.27 2.064 3.302 4.334 3.302 7.223s-1.032 5.366-3.302 7.43c-2.064 2.064-4.54 2.9-7.43 2.9-1.445 0-2.683-.206-3.92-.62s-2.27-1.238-3.5-2.064c-1.238-1.032-2.064-2.27-2.683-3.715-.62-1.238-.826-2.477-.826-3.92.413-2.9 1.445-5.366 3.5-7.223zm-.826 7.223c0 2.683.62 4.953 2.064 6.8 1.65 2.064 3.715 2.9 6.398 2.9 1.238 0 2.27-.206 3.096-.62.62-.206 1.032-.62 1.65-1.032a4.82 4.82 0 0 0 1.445-1.445c1.445-1.857 2.27-4.128 2.27-6.8 0-1.032-.206-1.857-.413-2.9-.413-1.857-1.445-3.5-2.9-4.747-.62-.62-1.445-1.032-2.27-1.238s-1.857-.413-2.9-.413c-1.445 0-2.683.206-3.5.826-1.032.62-2.064 1.238-2.683 2.27-1.65 1.857-2.27 3.92-2.27 6.398zm37.768-7.43c-1.857-1.65-4.54-2.477-7.843-2.477h-8.462c.413.206.62.62.62 1.032V45.15c0 .413-.206.826-.413 1.032l-.206.206h9.287c1.65 0 3.096-.206 4.54-.826 1.65-.826 3.096-2.064 4.334-3.715.62-.826 1.032-1.857 1.238-2.683s.413-1.857.413-2.9c0-3.096-1.032-5.572-3.5-7.636zm1.238 7.636c0 1.238-.206 2.477-.826 3.715-.826 1.857-1.857 3.096-3.302 4.128s-3.096 1.445-4.953 1.445h-5.366V27.196h5.366c1.445 0 2.683.413 3.92.826.826.413 1.445.826 2.064 1.238.62.62 1.238 1.238 1.65 2.064 1.032 1.445 1.445 3.096 1.445 4.953zm4.53 6.8l1.445 1.445c1.032.826 2.27 1.238 3.92 1.238 1.032 0 2.064-.413 2.683-1.032a3.81 3.81 0 0 0 1.032-2.477c0-1.032-.413-2.064-1.238-2.683l-4.953-4.334-1.238-1.238c-.826-1.032-1.238-2.064-1.238-2.9 0-1.445.62-2.477 1.65-3.5 1.238-.826 2.477-1.238 3.92-1.445.413 0 1.032 0 1.65.206l.826.206h1.238l.413-.206v2.064h-.206l-.206-.62c-.826-.826-1.857-1.238-3.5-1.238a3.42 3.42 0 0 0-2.477 1.032c-.62.62-.826 1.445-.826 2.27 0 1.032.62 2.064 1.65 3.096l5.16 4.747c1.238 1.238 1.857 2.477 1.857 3.715 0 1.445-.62 2.683-1.65 3.5S139.65 46.17 138 46.17c-1.032 0-2.27-.206-3.715-.826-.62-.206-1.032-.413-1.238-.413h-.826v-1.857zm-67.28-22.083h-.413l-1.02.197-1.65.413c-.62.206-1.238.206-2.064.206-1.032 0-2.064-.206-2.9-.413l-1.65-.62c-.413-.206-1.032-.62-1.445-1.032-1.857-1.65-2.9-3.715-2.9-6.398 0-2.477 1.032-4.54 2.9-6.2 1.65-1.445 3.92-2.27 6.604-2.27.62 0 1.445 0 1.857.206s1.032.206 1.857.62h1.238l.206 1.445h-.206l-.206-.206c-.826-.826-2.064-1.238-3.302-1.445H60.6c-2.27 0-4.128.826-5.572 2.27s-2.27 3.302-2.27 5.572c0 1.65.413 3.096 1.238 4.334.206.413.62.826 1.032 1.238s.826.62 1.238 1.032c.413.206.826.62 1.238.826 1.032.413 2.064.62 2.9.62.62 0 1.238 0 1.857-.206 1.238-.206 2.27-.826 2.9-1.445l-.206 1.65v-.413zm17.748-.404V5.938c0-.413.206-.62.413-.826h.206-3.096c.206.206.413.413.62.826v6.398h-10.73V5.938c0-.206.206-.62.413-.826h.206-2.9c.206.206.413.62.413 1.238v13.83c0 .62-.206 1.032-.413 1.238h-.206 3.096c-.206-.206-.413-.413-.413-.826v-7.636h10.732v7.636c0 .413-.206.62-.413.826h-.206H83.5c-.62 0-.826-.413-.826-.826zm5.16-13.413c1.857-1.65 3.92-2.27 6.2-2.27 1.032 0 2.064.206 3.096.62.413.206.826.206 1.032.413.413.206.62.413 1.032.62s.62.413.826.62c1.857 1.65 2.683 3.715 2.683 5.985 0 2.477-.826 4.54-2.683 6.2-1.65 1.65-3.715 2.477-6.2 2.477-1.238 0-2.27-.206-3.302-.62s-1.857-1.032-2.9-1.65c-1.032-.826-1.65-1.857-2.27-3.096-.413-1.032-.62-2.064-.62-3.302.62-2.477 1.445-4.54 3.096-5.985zm-.62 5.78c0 2.27.62 4.128 1.857 5.572 1.238 1.65 3.096 2.477 5.16 2.477 1.032 0 1.857-.206 2.683-.413.413-.206 1.032-.413 1.445-.826l1.238-1.238c1.238-1.445 1.857-3.302 1.857-5.572 0-.826 0-1.65-.206-2.27a7.16 7.16 0 0 0-2.477-3.921c-.62-.413-1.238-.826-1.857-1.032s-1.445-.413-2.27-.413c-1.238 0-2.064.206-2.9.62s-1.65 1.032-2.27 1.857c-1.857 1.445-2.27 3.302-2.27 5.16zm39.008 7.214c-.413.413-.62.62-.826.62h-7.43v-7.02h6.604c.413 0 .826.206.826.62v-1.65c-.206.206-.413.413-.826.413h-6.8V5.526h7.43c.206 0 .413.206.62.413v.206-1.238h-10.32c.206.206.413.413.62.826v14.653c0 .413-.206.62-.413.826h-.206 10.113l.62-1.032zm16.098-15.274c.413.206.413.413.62.62v12.6L131.183 5.732c-.206-.206-.413-.413-.413-.62v-.206h-2.9l.62.62.206.413V20.8c0 .206-.206.413-.413.62h-.206 1.65c-.206 0-.413-.206-.62-.62V6.764l14.034 14.86V5.938c0-.413.206-.62.413-.62l-1.238-.413zm-37.975 13.828l1.238 1.238a5.07 5.07 0 0 0 3.096 1.032c.826 0 1.65-.206 2.27-.826s.826-1.238.826-2.064-.413-1.65-1.032-2.27l-3.92-3.715-1.032-1.032c-.62-.826-1.032-1.65-1.032-2.477 0-1.238.413-2.064 1.445-2.9 1.032-.62 2.064-1.032 3.302-1.032.413 0 .826 0 1.238.206l.826.206h1.032v1.65h-.206l-.206-.206c-.413-.826-1.445-1.238-2.683-1.238-.826 0-1.445.206-2.064.826-.413.62-.62 1.238-.62 1.857 0 .826.413 1.65 1.445 2.477l4.128 3.92c1.032 1.032 1.445 2.064 1.445 3.096 0 1.238-.413 2.27-1.445 2.9-.826.62-2.064 1.032-3.302 1.032-.826 0-1.857-.206-3.096-.62-.413-.206-.826-.206-1.032-.206h-.826l.206-1.857zM147.9 6.557c0 1.032-.826 1.65-1.65 1.65-1.032 0-1.65-.826-1.65-1.65 0-1.032.826-1.65 1.65-1.65 1.032 0 1.65.826 1.65 1.65zm-2.9 0c0 .826.62 1.445 1.238 1.445.826 0 1.238-.62 1.238-1.238 0-.826-.62-1.445-1.238-1.445-.826 0-1.238.62-1.238 1.238zm1.032 1.032h-.413V5.732h.62c.413 0 .413 0 .62.206 0 0 .206.206.206.413s-.206.413-.413.413c.206 0 .206.206.206.413s0 .413.206.413h-.413s0-.206-.206-.413c0-.206-.206-.206-.413-.206v.62zm0-1.032c.413 0 .62 0 .62-.206s-.206-.206-.413-.206h-.206v.413z" fill="#1a857d"/><path d="M36.7 4.814C25.33-1.683 10.712 2.03 4.214 13.4S1.43 39.388 12.8 45.886s25.99 2.784 32.486-8.586c6.497-11.602 2.784-25.99-8.586-32.486zm1.624 25.292h.232l1.392-1.624c.464-.696 1.16-.928 1.856-.928.464 0 .696 0 1.16.232 1.16.464 1.624 1.856 1.16 3.017l-1.16 3.945c-.464 1.16-1.392 2.088-2.784 2.088h-.696c-.464-.232-.928-.232-1.392-.464l-1.392-.464c-.464 0-.696-.232-1.16-.232-.928 0-1.856.232-2.552.928L30.9 38.228s-.232.232 0 .232c0 0 0 .232.232.232l2.088-.232h.232c1.16 0 2.088.696 2.32 1.624.464 1.16 0 2.32-1.16 3.017l-3.48 1.856c-.464.232-.928.232-1.392.232-.928 0-1.856-.464-2.552-1.392-.232-.464-.464-.696-.696-1.392l-.696-1.392c-.696-1.16-1.624-1.856-3.017-2.088l-2.784-.464s-.232 0-.232.232v.232l1.624 1.392c.928.696 1.16 2.088.696 3.017s-1.392 1.392-2.32 1.392h-.696l-3.945-1.16c-1.392-.464-2.32-2.088-1.856-3.48.232-.464.232-.928.464-1.392l.696-1.392c.464-1.16.232-2.552-.696-3.48l-1.624-2.088h-.232s-.232 0-.232.232l.232 2.088c.232 1.16-.464 2.32-1.624 2.784-.232 0-.464.232-.696.232-.928 0-1.624-.464-2.088-1.392l-1.856-3.713c-.696-1.392-.232-3.017 1.16-3.713.464-.232.696-.464 1.392-.696l1.392-.696c1.16-.696 1.856-1.624 2.088-3.017l.464-2.784c0-.232 0-.232-.232-.232h-.232l-1.392 1.624c-.464.696-1.16.928-1.856.928-.464 0-.696 0-1.16-.232-1.16-.464-1.624-1.856-1.16-3.017l1.16-3.945c.464-1.16 1.392-2.088 2.784-2.088h.696c-.464 0 0 .232.464.464l1.392.232c.464 0 .696.232 1.16.232.928 0 1.856-.232 2.552-.928l2.088-1.624s.232-.232 0-.232c0 0 0-.232-.232-.232l-1.856.232h-.232c-1.16 0-2.088-.696-2.32-1.624-.464-1.16 0-2.32 1.16-3.017L18.6 5.743c.464-.232.928-.232 1.392-.232.928 0 1.856.464 2.552 1.392.232.464.464.696.696 1.392l.232 1.16c.696 1.16 1.856 1.856 3.017 2.088l2.784.232s.232 0 .232-.232v-.232L27.883 9.92c-.928-.696-1.16-2.088-.696-3.017S28.58 5.5 29.507 5.5h.696l3.945 1.16c1.392.464 2.32 2.088 1.856 3.48-.232.696-.232.928-.464 1.624l-.464 1.624c-.464 1.16-.232 2.552.696 3.48l1.624 2.088h.232s.232 0 .232-.232l-.232-2.088c-.232-1.16.464-2.32 1.624-2.784.232 0 .464-.232.696-.232.928 0 1.624.464 2.088 1.392l1.856 3.713c.696 1.392.232 3.017-1.16 3.713-.464.232-.696.464-1.392.696l-1.392.696c-1.16.696-1.856 1.624-2.088 3.017l.232 3.017s0 .232.232.232z" fill="#1a857d"/><path d="M42.965 27.786c-.464-.232-.696-.232-1.16-.232-.696 0-1.392.232-1.856.928l-1.392 1.624h-.232l-.232-.232.464-2.784c.232-1.16.928-2.32 2.088-3.017l2.784-1.392c1.392-.696 1.856-2.32 1.16-3.713l-1.856-3.713c-.464-.928-1.16-1.392-2.088-1.392-.232 0-.464 0-.696.232-1.16.464-1.856 1.392-1.624 2.784l.232 2.088c0 .232 0 .232-.232.232h-.232l-2.32-2.32c-.696-.928-.928-2.32-.696-3.48l.464-1.624c.232-.696.232-.928.464-1.392.464-1.392-.464-3.017-1.856-3.48l-3.945-1.16h-.696c-.928 0-1.856.464-2.32 1.392-.464 1.16-.232 2.32.696 3.017l1.624 1.392v.232s0 .232-.232.232l-2.784-.464c-1.16-.232-2.32-.928-3.017-2.088L22.082 6.67c-.464-.696-1.392-1.392-2.32-1.392-.464 0-.928 0-1.392.232L14.656 7.6c-1.16.696-1.624 1.856-1.16 3.017.232 1.16 1.16 1.624 2.32 1.624h.232l2.088-.232s.232 0 .232.232v.232l-2.088 1.624c-.696.464-1.624.928-2.552.928-.464 0-.696 0-1.16-.232l-1.392-.464c-.464 0-.928-.232-1.392-.232h-.696c-1.16 0-2.32.928-2.784 2.088l-1.16 3.945c-.464 1.16.232 2.32 1.16 3.017.464.232.696.232 1.16.232.696 0 1.392-.232 1.856-.928l1.392-1.624h.232l.232.232-.232 2.32c-.232 1.16-.928 2.32-2.088 3.017L6.07 27.786c-1.392.696-1.856 2.32-1.16 3.713l1.856 3.713c.464.928 1.16 1.392 2.088 1.392.232 0 .464 0 .696-.232 1.16-.464 1.856-1.392 1.624-2.784l-.232-2.088c0-.232 0-.232.232-.232h.232l1.624 2.088c.696.928.928 2.32.696 3.48l-.464 1.392c-.232.464-.232.928-.464 1.392-.464 1.392.464 3.017 1.856 3.48l3.945 1.16h.696c.928 0 1.856-.464 2.32-1.392.464-1.16.232-2.32-.696-3.017l-1.624-1.392v-.232s0-.232.232-.232l2.784.464c1.16.232 2.32.928 3.017 2.088l1.392 2.784c.464.928 1.392 1.392 2.552 1.392.464 0 .928 0 1.392-.232l3.713-1.856c1.16-.696 1.624-1.856 1.16-3.017-.232-1.16-1.16-1.624-2.32-1.624h-.232l-1.856.464s-.232 0-.232-.232v-.232l2.088-1.624c.696-.464 1.624-.928 2.552-.928.464 0 .696 0 1.16.232l1.392.464c.696.232.928.232 1.392.464h.696c1.16 0 2.32-.928 2.784-2.088l1.16-3.945c.464-1.16 0-2.32-1.16-2.784zm-.464 2.32l-1.16 3.945c-.232.464-.696.696-1.16.696-.464-.232-.928-.232-1.392-.464l-1.392-.464c-1.856-.464-3.713-.232-5.105.928l-2.088 1.624c-.696.464-.928 1.392-.696 2.32s1.16 1.392 2.088 1.392l2.088-.232c.464 0 .696.232.696.464s0 .696-.232.928L30.435 43.1a1.12 1.12 0 0 1-1.392-.464c-.232-.464-.464-.696-.696-1.392l-.696-1.392c-.928-1.624-2.552-2.784-4.41-3.017l-2.784-.464h-.232c-.696 0-1.624.464-1.856 1.16-.464.928-.232 1.856.464 2.32l1.624 2.088c.232.232.232.696.232.928-.232.232-.464.464-.696.232l-4.177-1.16c-.464-.232-.696-.696-.696-1.16.232-.464.232-.928.464-1.392l.464-1.392c.464-1.856.232-3.713-.928-5.105l-1.624-2.552c-.464-.696-1.392-.928-2.32-.696s-1.392 1.16-1.392 2.088l.232 2.088c0 .464-.232.696-.464.696s-.696 0-.928-.232L6.767 30.57a1.12 1.12 0 0 1 .464-1.392c.464-.232.696-.464 1.392-.696l1.16-.464c1.624-.928 2.784-2.552 3.017-4.41l.464-2.784c.232-.928-.464-1.856-1.16-2.088-.928-.464-1.856-.232-2.32.464L8.16 21.057c-.232.232-.696.232-.928.232-.232-.232-.464-.464-.232-.696l1.16-4.177c.232-.464.696-.696 1.16-.696.464.232.928.232 1.392.464l1.392.464c1.856.464 3.713.232 5.105-.928l2.32-1.624c.696-.464.928-1.392.696-2.32s-1.16-1.624-2.088-1.392l-2.088.232c-.464 0-.696-.232-.696-.464s0-.696.232-.928l3.713-2.088c.464-.232 1.16 0 1.392.464s.464.696.696 1.392l.464 1.392c.928 1.624 2.552 2.784 4.41 3.017l2.784.464c.928.232 1.856-.464 2.088-1.16.464-.928.232-1.856-.464-2.32L29.043 8.99c-.232-.232-.232-.696-.232-.928.232-.232.464-.464.696-.232l3.945.696c.464.232.696.696.696 1.16-.232.464-.232.928-.464 1.392l-.232 1.624c-.464 1.856-.232 3.713.928 5.105l1.624 2.088c.464.696 1.392.928 2.32.696s1.392-1.16 1.392-2.088l-.232-2.088c0-.464.232-.696.464-.696s.696 0 .928.232l1.856 3.713a1.12 1.12 0 0 1-.464 1.392c-.464.232-.696.464-1.392.696l-1.392.696c-1.624.928-2.784 2.552-3.017 4.41l-.464 2.784c-.232.928.464 1.856 1.16 2.088.928.464 1.856.232 2.32-.464l1.392-1.624c.232-.232.696-.232.928-.232.696 0 .928.232.696.696z" fill="#fff"/><path d="M30.9 28.715c1.856-3.25.696-7.657-2.552-9.514-1.16-.696-2.32-.928-3.48-.928-2.32 0-4.873 1.16-6.033 3.48-.928 1.624-1.16 3.48-.696 5.337.232 1.856 1.392 3.25 3.017 4.177s3.48 1.16 5.337.696 3.48-1.624 4.4-3.25zm8.817-6.265l2.784-1.392a1.12 1.12 0 0 0 .464-1.392l-1.856-3.713c-.232-.464-.464-.464-.928-.232-.232 0-.464.232-.464.696l.232 2.088c0 .928-.464 1.856-1.392 2.088s-1.856 0-2.32-.696l-1.624-2.088c-1.16-1.392-1.392-3.48-.928-5.105l.464-1.392c.232-.696.232-.928.464-1.392s-.232-1.16-.696-1.16L29.97 7.6c-.464-.232-.696 0-.696.232-.232.232-.232.696.232.928l1.624 1.392c.696.696.928 1.624.464 2.32-.464.928-1.16 1.392-2.088 1.16l-2.784-.464c-1.856-.232-3.48-1.392-4.4-3.017l-1.16-1.16-.696-1.392c-.232-.464-.696-.696-1.16-.464l-3.713 2.088c-.464.232-.464.464-.464.696s.232.464.696.464l2.088-.232c.928 0 1.856.464 2.088 1.392s0 1.856-.696 2.32l-2.088 1.624c-1.392 1.16-3.48 1.392-5.105.928L10.7 15.95c-.464-.232-.928-.232-1.392-.464s-1.16.232-1.16.696L7 20.13c-.232.464 0 .696.232.696.232.464.696.464.928.232l1.392-1.624c.696-.696 1.624-.928 2.32-.464.928.464 1.392 1.16 1.16 2.088l-.464 2.784c0 1.624-1.16 3.25-2.784 4.177L7 29.4a1.12 1.12 0 0 0-.464 1.392l1.856 3.713c.232.464.464.464.928.232.232 0 .464-.232.464-.696l-.232-2.088c0-.928.464-1.856 1.392-2.088s1.856 0 2.32.696l1.856 2.088c1.16 1.392 1.392 3.48.928 5.105l-.464 1.392c-.232.464-.232.928-.464 1.392s.232 1.16.696 1.16l3.945 1.16c.464.232.696 0 .696-.232.232-.232.232-.696-.232-.928l-1.625-1.39c-.696-.696-.928-1.624-.464-2.32.232-.696 1.16-1.16 1.856-1.16h.232L23 37.3c1.856.232 3.48 1.392 4.4 3.017l1.4 2.783a1.12 1.12 0 0 0 1.392.464l3.713-1.856c.464-.232.464-.464.232-.928 0-.232-.232-.464-.696-.464l-2.088.232c-.928 0-1.856-.464-2.088-1.392s0-1.856.696-2.32l2.088-1.624c1.392-1.16 3.48-1.392 5.105-.928l1.392.464c.696.232.928.232 1.392.464s1.16-.232 1.16-.696l1.16-3.945c.232-.464 0-.696-.232-.696-.232-.232-.696-.232-.928.232l-1.392 1.624c-.696.696-1.624.928-2.32.464-.928-.464-1.392-1.16-1.16-2.088l.464-2.784c.232-2.32 1.392-3.945 3.017-4.873zm-7.425 7.193c-1.16 2.088-3.017 3.48-5.337 4.177-.696.232-1.624.232-2.32.232-1.624 0-3.017-.464-4.4-1.16-2.088-1.16-3.48-3.017-4.177-5.337s-.232-4.64.928-6.73c2.32-4.177 7.9-5.57 11.834-3.25 4.4 2.552 5.8 7.9 3.48 12.066z" fill="#1a857d"/><path d="M24.634 34.052c-1.624 0-3.017-.464-4.41-1.16-2.088-1.16-3.48-3.017-4.177-5.337s-.232-4.64.928-6.73c2.32-4.177 7.89-5.57 11.834-3.25 4.177 2.32 5.57 7.89 3.25 11.834-1.16 2.088-3.017 3.48-5.337 4.177-.464.232-1.16.464-2.088.464zm0-15.78c-2.32 0-4.873 1.16-6.033 3.48-.928 1.624-1.16 3.48-.696 5.337s1.624 3.25 3.25 4.177 3.48 1.16 5.337.696 3.25-1.624 4.177-3.25c1.856-3.25.696-7.657-2.552-9.514-.928-.696-2.088-.928-3.48-.928z" fill="#fff"/></svg>